<svg xmlns="http://www.w3.org/2000/svg" xmlns:xlink="http://www.w3.org/1999/xlink" width="125.509" height="37.143" viewBox="0 0 125.509 37.143">
  <defs>
    <linearGradient id="linear-gradient" x1="-0.14" y1="0.749" x2="0.925" y2="0.335" gradientUnits="objectBoundingBox">
      <stop offset="0" stop-color="#eab61f"/>
      <stop offset="0" stop-color="#b9972f"/>
      <stop offset="0.55" stop-color="#fdd548"/>
      <stop offset="1" stop-color="#b9972f"/>
    </linearGradient>
  </defs>
  <g id="Group_6414" data-name="Group 6414" transform="translate(-27.447 -123.685)">
    <g id="Group_6413" data-name="Group 6413" transform="translate(60.946 123.839)">
      <path id="Path_13838" data-name="Path 13838" d="M100.542,160.818v-36.8h26.169v7.137H111.824v6.715h13.814v6.984H111.824v15.962Z" transform="translate(-100.542 -124.02)" fill="#fff" fill-rule="evenodd"/>
      <path id="Path_13839" data-name="Path 13839" d="M172.858,160.818V131.157h-9.017V124.02h29.814v7.137h-9.516v29.661Z" transform="translate(-134.832 -124.02)" fill="#fff" fill-rule="evenodd"/>
      <g id="Group_6412" data-name="Group 6412" transform="translate(61.433 0.046)">
        <path id="Path_13840" data-name="Path 13840" d="M234.591,160.864V124.12h14.821c4.543,0,8.031.567,10.472,2.07a7.643,7.643,0,0,1,4.023,6.49c0,1.982.2,3.323-1.648,5.558a12.674,12.674,0,0,1-3.511,3.039,11.165,11.165,0,0,1,4.086,2.517,8,8,0,0,1,2.335,6.1,10.014,10.014,0,0,1-3.954,8.131c-2.854,2.307-6.363,2.836-10.981,2.836Zm11.265-30.676-.038,8.327,3.607-.269a5.083,5.083,0,0,0,2.526-1.223,3.493,3.493,0,0,0,1.078-2.728c-.006-2.159-1.366-4.076-5.833-4.076Zm-.038,14.892v9.32l2.46-.06c3.375-.571,3.852-1.147,4.278-1.529a4.074,4.074,0,0,0,1.311-3.03,4.528,4.528,0,0,0-.78-2.983c-.633-1.005-2.565-1.719-4.3-1.719Z" transform="translate(-234.591 -124.12)" fill="#fff"/>
      </g>
    </g>
    <path id="Path_13841" data-name="Path 13841" d="M47.093,123.685c.307,0,.576,0,.5.23a.93.93,0,0,1-.192.384s.038,0,.154-.077.038-.115.384-.115c.307,0,.921-.038,1.075.154.192.23.192.307.154.422a.391.391,0,0,1-.038.153,1.654,1.654,0,0,1,.729.038c.23.154.882.729.921,1a1.952,1.952,0,0,0,.23,1.074c.269.346.614.308.96.576a.9.9,0,0,1,.384.883,9.378,9.378,0,0,1-.115.96,1.262,1.262,0,0,1-.231.422,2.531,2.531,0,0,1,.96.268c.422.192.576.5.537.73,0,.23-.115.5-.038.652.077.192-.077.269.038.422a1.328,1.328,0,0,1,.077.691,4.085,4.085,0,0,1-.038.461,9.9,9.9,0,0,1,1.3,1.8c.729,1.189.653,1.266.921,1.573a3.835,3.835,0,0,1,1.189,2.033,11.027,11.027,0,0,1,.461,2.571,10.459,10.459,0,0,1-.192,1.8,2.654,2.654,0,0,0-.077,1.266A7.639,7.639,0,0,0,57.8,145.9a2.417,2.417,0,0,1,.384,1.688.8.8,0,0,1-.653.806c-.345.038-.652.038-.652.038s-.307.461-.077.653c.231.23.538.269.422.767-.077.5-.384.5-.46.5h-.231s.154.115.346.23c.23.154.192.307.115.576-.115.307-.154.269-.23.345a.823.823,0,0,1-.231.038s.038.538-.269.729-.537.231-.461.422c.038.23.231,1.267.307,1.458s-.077.192.231.269c.307.116.959.23.959.46.038.231-.115,1,.345,1.382.461.345.806.5.806,1.074v3.491h-31v-3.223H42.988l-.652-2.264H27.447V153.46H41.76l-.691-2.225H27.447v-1.88H40.532l-.691-2.226H27.447v-1.918H39.266l-.653-2.226H27.447v-1.918H38.038l-.652-2.226H27.447v-1.88H36.81l-.691-2.264H27.447v-1.88h8.135l-.691-2.264H27.447v-1.88h6.869l-.653-2.225H27.447v-2.763Z" fill-rule="evenodd" fill="url(#linear-gradient)"/>
  </g>
</svg>
